<svg width="49" height="35" viewBox="0 0 49 35" fill="none" xmlns="http://www.w3.org/2000/svg">
<path fill-rule="evenodd" clip-rule="evenodd" d="M0 0H20.7924V22.5945H7.43151V30.055L0 25.0025V0ZM1.02941 1.02057V24.4648L6.4021 28.1176V21.5739H19.763V1.02057H1.02941Z" fill="#6F7070"/>
<path d="M22.9558 3.16406H3.28516V29.2907L9.65734 33.9853V26.4331H22.9558V3.16406Z" fill="#6F7070"/>
<path fill-rule="evenodd" clip-rule="evenodd" d="M2.76953 2.6543H23.4696V26.9439H10.1711V35.0008L2.76953 29.5478V2.6543ZM3.79894 3.67487V29.0347L9.14172 32.9709V25.9233H22.4402V3.67487H3.79894Z" fill="#6F7070"/>
<path fill-rule="evenodd" clip-rule="evenodd" d="M25.5312 0H46.3237V22.5945H32.9628V30.055L25.5312 25.0025V0ZM26.5607 1.02057V24.4648L31.9334 28.1176V21.5739H45.2943V1.02057H26.5607Z" fill="#6F7070"/>
<path d="M48.4871 3.16406H28.8164V29.2907L35.1886 33.9853V26.4331H48.4871V3.16406Z" fill="#6F7070"/>
<path fill-rule="evenodd" clip-rule="evenodd" d="M28.3008 2.6543H49.0009V26.9439H35.7024V35.0008L28.3008 29.5478V2.6543ZM29.3302 3.67487V29.0347L34.673 32.9709V25.9233H47.9714V3.67487H29.3302Z" fill="#6F7070"/>
</svg>
