<svg width="50" height="36" fill="none" xmlns="http://www.w3.org/2000/svg"><path d="m.021 12.514.021 12.514 1.146.784 1.145.783v3.228l4.146 3.056 4.146 3.056.022-4.259.021-4.259H23.917V2.167h-3.084V0H-.001l.022 12.514m25.479-.032v12.483l1.146.788 1.146.789.041 1.644.042 1.644L32 32.868l4.125 3.039.022-4.245.021-4.245H49.5V2.167h-3.167V0H25.5v12.482m-3.5 2.31v10.625H8.669l-.022 3.286-.022 3.287-2.042-1.502a113.958 113.958 0 0 1-2.187-1.633c-.138-.123-.146-.821-.146-12.41V4.167H22v10.625m25.5-.001v10.625l-6.646.021-6.646.021-.041 3.256-.042 3.255-2.146-1.58-2.146-1.581V4.167H47.5v10.624" fill="#D6001C" fill-rule="evenodd"/></svg>
